<?xml version="1.0" standalone="no"?><!DOCTYPE svg PUBLIC "-//W3C//DTD SVG 1.1//EN" "http://www.w3.org/Graphics/SVG/1.1/DTD/svg11.dtd"><svg t="1703956635900" class="icon" viewBox="0 0 1024 1024" version="1.1" xmlns="http://www.w3.org/2000/svg" p-id="20323" xmlns:xlink="http://www.w3.org/1999/xlink" width="128" height="128"><path d="M511.470036 0.069995c-223.074751 0-402.262502 179.187751-402.262501 402.262502 0 219.405002 303.519252 621.667503 402.262501 621.667503 98.733251 0 402.252502-402.262502 402.252502-621.667503C913.732538 179.257746 734.544787 0.069995 511.470036 0.069995z m0 932.506255c-65.8255 0-329.127501-362.035251-329.127501-530.243753 0-182.847501 146.28-329.127501 329.127501-329.127501S840.587538 219.484996 840.587538 402.332497c0 168.208501-263.292002 530.243753-329.117502 530.243753z m0 0" fill="#a2a8aa" p-id="20324"></path><path d="M511.470036 256.052496c-80.4545 0-146.28 65.8255-146.28 146.280001s65.8255 146.270001 146.28 146.270001 146.270001-65.8255 146.270001-146.270001c0.009999-80.4545-65.815501-146.28-146.270001-146.280001z m0 219.415001c-40.22725 0-73.145-32.90775-73.145-73.135 0-40.22725 32.91775-73.145 73.145-73.145 40.22725 0 73.135001 32.91775 73.135001 73.145 0.009999 40.22725-32.90775 73.135001-73.135001 73.135z m0 0" fill="#a2a8aa" p-id="20325"></path></svg>