<?xml version="1.0" standalone="no"?><!DOCTYPE svg PUBLIC "-//W3C//DTD SVG 1.1//EN" "http://www.w3.org/Graphics/SVG/1.1/DTD/svg11.dtd"><svg t="1703916832281" class="icon" viewBox="0 0 1024 1024" version="1.1" xmlns="http://www.w3.org/2000/svg" p-id="6203" xmlns:xlink="http://www.w3.org/1999/xlink" width="128" height="128"><path d="M754.439658 206.39472c-21.140483 0-38.279838 17.140379-38.279838 38.279838s17.140379 38.279838 38.279838 38.279838c49.251727 0 89.320305 40.068578 89.320305 89.320305l0 421.080268c0 49.251727-40.068578 89.320305-89.320305 89.320305L269.559319 882.675274c-49.251727 0-89.320305-40.068578-89.320305-89.320305l0-421.080268c0-49.251727 40.068578-89.320305 89.320305-89.320305 21.140483 0 38.279838-17.140379 38.279838-38.279838s-17.140379-38.279838-38.279838-38.279838c-91.469248 0-165.879981 74.410734-165.879981 165.879981l0 421.080268c0 91.469248 74.410734 165.879981 165.879981 165.879981l484.880339 0c91.469248 0 165.879981-74.410734 165.879981-165.879981l0-421.080268C920.319639 280.805454 845.909929 206.39472 754.439658 206.39472z" fill="#1A1A1A" p-id="6204"></path><path d="M474.355635 206.39472c-21.140483 0-38.279838 17.140379-38.279838 38.279838s17.140379 38.279838 38.279838 38.279838l75.28873 0c21.140483 0 38.279838-17.140379 38.279838-38.279838s-17.140379-38.279838-38.279838-38.279838L474.355635 206.39472z" fill="#1A1A1A" p-id="6205"></path><path d="M358.966605 348.69875c21.140483 0 38.279838-17.140379 38.279838-38.279838 0-91.656513 52.547797-169.095209 114.752534-169.095209 62.198597 0 114.746394 77.438697 114.746394 169.095209 0 21.140483 17.140379 38.279838 38.279838 38.279838s38.279838-17.140379 38.279838-38.279838c0-135.457088-85.818551-245.654886-191.307094-245.654886s-191.313234 110.198821-191.313234 245.654886C320.686766 331.559395 337.827145 348.69875 358.966605 348.69875z" fill="#1A1A1A" p-id="6206"></path></svg>