<?xml version="1.0" standalone="no"?><!DOCTYPE svg PUBLIC "-//W3C//DTD SVG 1.1//EN" "http://www.w3.org/Graphics/SVG/1.1/DTD/svg11.dtd"><svg t="1703916867404" class="icon" viewBox="0 0 1024 1024" version="1.1" xmlns="http://www.w3.org/2000/svg" p-id="7490" xmlns:xlink="http://www.w3.org/1999/xlink" width="128" height="128"><path d="M867.84 422.4H299.008l571.904-194.048c35.84-10.752 56.32-49.152 45.568-84.992l-14.848-49.152c-8.704-28.672-35.328-49.152-65.536-49.152-6.656 0-13.312 1.024-19.456 3.072h-0.512L126.464 282.112c-35.84 10.752-56.32 49.152-45.568 84.992l14.848 49.152c4.096 13.824 12.288 25.088 23.04 33.792-8.192 11.264-13.312 25.6-13.312 40.448v433.152c0 37.888 30.72 68.608 68.608 68.608h694.784c37.888 0 68.608-30.72 68.608-68.608V491.008c-1.024-37.888-31.744-68.608-69.632-68.608z m17.408 68.608v68.608h-200.704l69.632-86.016h113.664c9.728 0 17.408 7.68 17.408 17.408zM173.056 473.6h174.08l-76.288 76.288c-3.072 3.072-4.608 6.144-6.144 9.728H155.648V491.008c0-9.728 8.192-17.408 17.408-17.408z m241.152 5.632c1.536-1.536 3.072-3.584 4.096-5.12h269.824L624.64 552.448c-2.048 2.56-3.072 5.12-4.096 7.68h-286.72l80.384-80.896zM141.312 331.264L831.488 97.28c1.536-0.512 3.072-0.512 4.608-0.512 7.68 0 14.336 5.12 16.384 12.288l14.848 49.152c2.56 9.216-2.56 18.944-11.776 21.504h-0.512L165.376 413.696c-1.536 0.512-3.072 0.512-4.608 0.512-7.68 0-14.336-5.12-16.384-12.288l-14.848-49.152c-2.56-9.216 2.56-18.944 11.776-21.504z m726.528 610.304H173.056c-9.728 0-17.408-7.68-17.408-17.408v-313.344h729.6v313.344c0 9.728-7.68 17.408-17.408 17.408z" p-id="7491" fill="#2c2c2c"></path></svg>