<?xml version="1.0" standalone="no"?><!DOCTYPE svg PUBLIC "-//W3C//DTD SVG 1.1//EN" "http://www.w3.org/Graphics/SVG/1.1/DTD/svg11.dtd"><svg t="1703954587083" class="icon" viewBox="0 0 1024 1024" version="1.1" xmlns="http://www.w3.org/2000/svg" p-id="15925" xmlns:xlink="http://www.w3.org/1999/xlink" width="128" height="128"><path d="M520.588 616.231636l-8.335239-48.436086a112.190673 112.190673 0 0 0 49.682258-199.375629l-124.875755-96.484213a112.51985 112.51985 0 0 0-157.534844 20.232646 112.743221 112.743221 0 0 0 20.197377 157.534845l42.687241 32.988266-30.049184 38.878189-42.663728-32.929485a161.861174 161.861174 0 0 1-29.049895-226.520998c54.443572-70.53799 156.077059-83.552249 226.520998-29.073409l124.875755 96.484214a161.320383 161.320383 0 0 1-71.396202 286.70166z" p-id="15926" fill="#2c2c2c"></path><path d="M655.139216 824.553833a159.886111 159.886111 0 0 1-98.247664-33.599595l-124.887511-96.484214c-70.385158-54.38479-83.469955-155.91247-29.038139-226.332897l1.105095-1.387248a160.873642 160.873642 0 0 1 99.352759-58.946246l8.323483 48.436086a111.779201 111.779201 0 0 0-69.773829 41.852541l-1.011044 1.293196a112.343505 112.343505 0 0 0 21.090859 156.206379l124.887511 96.484214a112.754977 112.754977 0 0 0 157.534844-20.209134 112.496338 112.496338 0 0 0-20.162108-157.593626l-42.687241-32.976511 30.107966-38.901701 42.68724 32.917729c70.467452 54.455328 83.469955 156.077059 29.073408 226.544511a160.473927 160.473927 0 0 1-107.288283 61.274 164.412298 164.412298 0 0 1-21.067346 1.422516z" p-id="15927" fill="#2c2c2c"></path><path d="M512.005878 1024C229.724599 1024 0.005878 794.340061 0.005878 511.964731S229.724599 0 512.005878 0s511.988244 229.695208 511.988244 511.964731-229.683452 512.035269-511.988244 512.035269z m0-974.846777c-255.241717 0-462.846777 207.699111-462.846777 462.811508s207.605061 462.882046 462.846777 462.882046S974.840899 767.218204 974.840899 511.964731 767.212326 49.153223 512.005878 49.153223z" p-id="15928" fill="#2c2c2c"></path></svg>