<?xml version="1.0" standalone="no"?><!DOCTYPE svg PUBLIC "-//W3C//DTD SVG 1.1//EN" "http://www.w3.org/Graphics/SVG/1.1/DTD/svg11.dtd"><svg t="1703916891993" class="icon" viewBox="0 0 1024 1024" version="1.1" xmlns="http://www.w3.org/2000/svg" p-id="8759" xmlns:xlink="http://www.w3.org/1999/xlink" width="128" height="128"><path d="M282.686 423.339m-31.961 0a31.961 31.961 0 1 0 63.922 0 31.961 31.961 0 1 0-63.922 0Z" fill="#2c2c2c" p-id="8760"></path><path d="M683.316 252.134c-43.176-43.014-97.528-70.837-156.525-80.795 0.027-0.536 0.041-1.075 0.041-1.618 0-52.381-42.615-94.997-94.997-94.997-52.381 0-94.997 42.615-94.997 94.997 0 0.752 0.035 1.496 0.086 2.235-57.876 10.494-111.148 38.24-153.624 80.716-54.631 54.631-84.927 127.107-85.441 204.287-1.76 15.652-8.125 97.591 28.407 249.339 3.531 14.666 16.637 24.519 31.085 24.519 2.479 0 4.999-0.291 7.516-0.896 17.182-4.137 27.758-21.419 23.622-38.601-36.083-149.88-27.331-224.861-26.965-227.777 0.251-1.615 0.329-2.935 0.329-4.582 0-50.963 16.828-98.068 45.217-136.055l132.141 36.55a32.01 32.01 0 0 0 8.549 1.167c14.028 0 26.902-9.299 30.824-23.478 4.711-17.034-5.277-34.661-22.311-39.373l-95.596-26.441c36.68-25.28 81.095-40.107 128.914-40.107h87.989c50.04 0 96.476 16.411 134.196 44.126l-103.017 23.035c-17.247 3.857-28.103 20.965-24.246 38.212 3.331 14.896 16.546 25.024 31.199 25.024 2.313 0 4.662-0.252 7.013-0.778l141.598-31.662c25.416 36.396 40.542 80.474 40.997 127.934 0.168 17.568 14.461 31.695 31.991 31.693l0.313-0.001c17.672-0.169 31.861-14.633 31.692-32.305-0.742-77.275-31.283-149.855-86-204.368zM431.835 138.725c16.251 0 29.611 12.573 30.888 28.5h-61.775c1.276-15.928 14.636-28.5 30.887-28.5z" fill="#2c2c2c" p-id="8761"></path><path d="M534.754 936.441c-23.144 0-39.177-5.428-41.674-6.328-13.318-4.798-21.901-17.777-21.103-31.911 0.93-16.448 12.813-24.704 18.525-28.671 3.614-2.511 8.552-5.667 15.096-9.647 11.275-6.86 27.698-16.386 48.812-28.313 35.21-19.89 84.208-46.89 145.633-80.248 71.003-38.562 142.605-76.919 181.504-97.703-72.436-110.059-195.6-177.194-328.674-177.194-206.09 0-375.666 159.343-392.007 361.295H350.39c6.518-40.022 24.989-78.663 52.854-109.401 17.731-19.559 38.264-35.033 61.027-45.992 24.401-11.748 50.166-17.704 76.58-17.704 33.021 0 80.617 8.714 112.508 28.183 15.084 9.208 19.848 28.901 10.639 43.986-9.208 15.085-28.901 19.848-43.986 10.639-17.563-10.722-51.596-18.808-79.16-18.808-68.761 0-129.078 65.934-129.078 141.098 0 17.673-14.327 32-32 32H127.576c-17.673 0-32-14.327-32-32 0-61.721 12.095-121.611 35.95-178.01 23.034-54.459 56.002-103.36 97.989-145.347 41.987-41.987 90.889-74.956 145.347-97.989 56.398-23.854 116.29-35.95 178.01-35.95 167.323 0 321.171 91.288 401.504 238.238a31.997 31.997 0 0 1-13.045 43.598c-89.304 47.523-212.867 114.017-302.297 163.384 0.097 0.309 0.19 0.618 0.279 0.93 3.234 11.332 1.689 23.477-4.352 34.193-9.738 17.278-29.843 29.868-61.46 38.491a147.25 147.25 0 0 1-38.747 5.181z" fill="#2c2c2c" p-id="8762"></path></svg>